<?xml version="1.0" standalone="no"?>
<!DOCTYPE svg PUBLIC "-//W3C//DTD SVG 20010904//EN"
 "http://www.w3.org/TR/2001/REC-SVG-20010904/DTD/svg10.dtd">
<svg version="1.0" xmlns="http://www.w3.org/2000/svg"
 width="700.000000pt" height="700.000000pt" viewBox="0 0 700.000000 700.000000"
 preserveAspectRatio="xMidYMid meet">
<metadata>
Created by potrace 1.11, written by Peter Selinger 2001-2013
</metadata>
<g transform="translate(0.000000,700.000000) scale(0.100000,-0.100000)"
fill="#000000" stroke="none">
<path d="M6148 6984 c-14 -8 -73 -72 -129 -142 -120 -147 -313 -383 -377 -460
l-45 -54 -156 155 c-86 85 -172 163 -190 172 -46 23 -136 24 -180 1 -44 -23
-314 -293 -337 -337 -9 -19 -18 -58 -20 -88 -3 -58 10 -91 65 -173 54 -80 60
-182 16 -269 -29 -59 -33 -64 -105 -114 -55 -39 -56 -39 -150 -40 -94 0 -96 0
-200 51 -204 100 -438 188 -580 220 -11 2 -28 6 -37 9 -193 51 -500 88 -723
88 -73 0 -292 -11 -330 -17 -14 -2 -47 -7 -75 -10 -56 -7 -99 -14 -131 -21
-12 -3 -39 -7 -60 -11 -135 -21 -407 -106 -594 -186 -215 -92 -486 -250 -640
-375 -308 -248 -478 -432 -674 -728 -213 -323 -378 -733 -441 -1100 -5 -27
-10 -52 -10 -55 -1 -3 -5 -32 -9 -65 -5 -33 -10 -69 -12 -80 -23 -126 -23
-540 1 -715 17 -130 40 -255 65 -355 17 -66 33 -129 35 -141 4 -17 43 -130 94
-269 34 -94 172 -368 220 -440 17 -25 31 -48 31 -50 0 -9 126 -184 198 -274
89 -114 300 -326 428 -432 420 -349 975 -589 1509 -654 28 -4 61 -9 75 -12 14
-3 140 -6 280 -8 203 -2 285 1 400 16 980 126 1809 691 2281 1557 163 298 275
639 330 1002 19 120 23 190 23 405 1 324 -16 473 -89 765 -49 198 -122 394
-212 574 -70 140 -80 200 -52 308 19 74 101 155 187 185 44 16 141 9 183 -12
19 -10 52 -30 74 -45 79 -53 156 -60 230 -22 54 28 320 298 340 345 20 47 19
130 -1 172 -9 19 -88 106 -177 195 -158 159 -161 162 -141 179 43 34 253 199
364 286 141 110 131 102 207 164 62 51 91 91 88 121 -1 8 -3 23 -3 32 -2 21
-728 746 -760 759 -30 12 -51 10 -84 -7z"/>
</g>
</svg>
